<mxfile host="65bd71144e">
    <diagram name="ページ1" id="lIWD8rfaxodonx493o7T">
        <mxGraphModel dx="1090" dy="825" grid="1" gridSize="10" guides="1" tooltips="1" connect="1" arrows="1" fold="1" page="1" pageScale="1" pageWidth="827" pageHeight="1169" math="0" shadow="0">
            <root>
                <mxCell id="0"/>
                <mxCell id="1" parent="0"/>
                <mxCell id="XJWeRA6G3s2P3Jyl9n3Q-22" style="edgeStyle=orthogonalEdgeStyle;rounded=0;orthogonalLoop=1;jettySize=auto;html=1;" parent="1" edge="1">
                    <mxGeometry relative="1" as="geometry">
                        <mxPoint x="457" y="415" as="sourcePoint"/>
                        <mxPoint x="457" y="535" as="targetPoint"/>
                    </mxGeometry>
                </mxCell>
                <mxCell id="XJWeRA6G3s2P3Jyl9n3Q-1" value="item.dat.js" style="strokeWidth=2;html=1;shape=mxgraph.flowchart.document2;whiteSpace=wrap;size=0.25;verticalAlign=top;horizontal=1;" parent="1" vertex="1">
                    <mxGeometry x="387" y="365" width="80" height="50" as="geometry"/>
                </mxCell>
                <mxCell id="XJWeRA6G3s2P3Jyl9n3Q-16" style="edgeStyle=orthogonalEdgeStyle;rounded=0;orthogonalLoop=1;jettySize=auto;html=1;" parent="1" source="XJWeRA6G3s2P3Jyl9n3Q-2" target="XJWeRA6G3s2P3Jyl9n3Q-3" edge="1">
                    <mxGeometry relative="1" as="geometry"/>
                </mxCell>
                <mxCell id="XJWeRA6G3s2P3Jyl9n3Q-2" value="itemset.dat.js" style="strokeWidth=2;html=1;shape=mxgraph.flowchart.document2;whiteSpace=wrap;size=0.25;verticalAlign=top;horizontal=1;" parent="1" vertex="1">
                    <mxGeometry x="140" y="365" width="80" height="50" as="geometry"/>
                </mxCell>
                <mxCell id="XJWeRA6G3s2P3Jyl9n3Q-3" value="card.dat.js" style="strokeWidth=2;html=1;shape=mxgraph.flowchart.document2;whiteSpace=wrap;size=0.25;verticalAlign=top;horizontal=1;" parent="1" vertex="1">
                    <mxGeometry x="140" y="155" width="80" height="50" as="geometry"/>
                </mxCell>
                <mxCell id="XJWeRA6G3s2P3Jyl9n3Q-13" style="edgeStyle=orthogonalEdgeStyle;rounded=0;orthogonalLoop=1;jettySize=auto;html=1;" parent="1" source="XJWeRA6G3s2P3Jyl9n3Q-4" target="XJWeRA6G3s2P3Jyl9n3Q-1" edge="1">
                    <mxGeometry relative="1" as="geometry"/>
                </mxCell>
                <mxCell id="XJWeRA6G3s2P3Jyl9n3Q-14" style="edgeStyle=orthogonalEdgeStyle;rounded=0;orthogonalLoop=1;jettySize=auto;html=1;" parent="1" source="XJWeRA6G3s2P3Jyl9n3Q-4" target="XJWeRA6G3s2P3Jyl9n3Q-3" edge="1">
                    <mxGeometry relative="1" as="geometry"/>
                </mxCell>
                <mxCell id="XJWeRA6G3s2P3Jyl9n3Q-4" value="mig.enchlist.dat.js" style="strokeWidth=2;html=1;shape=mxgraph.flowchart.document2;whiteSpace=wrap;size=0.25;verticalAlign=top;horizontal=1;" parent="1" vertex="1">
                    <mxGeometry x="367" y="155" width="120" height="50" as="geometry"/>
                </mxCell>
                <mxCell id="XJWeRA6G3s2P3Jyl9n3Q-7" style="edgeStyle=orthogonalEdgeStyle;rounded=0;orthogonalLoop=1;jettySize=auto;html=1;" parent="1" source="XJWeRA6G3s2P3Jyl9n3Q-5" target="XJWeRA6G3s2P3Jyl9n3Q-6" edge="1">
                    <mxGeometry relative="1" as="geometry"/>
                </mxCell>
                <mxCell id="XJWeRA6G3s2P3Jyl9n3Q-5" value="usableskill.dat.js" style="strokeWidth=2;html=1;shape=mxgraph.flowchart.document2;whiteSpace=wrap;size=0.25;verticalAlign=top;horizontal=1;" parent="1" vertex="1">
                    <mxGeometry x="627" y="365" width="120" height="50" as="geometry"/>
                </mxCell>
                <mxCell id="XJWeRA6G3s2P3Jyl9n3Q-6" value="skill.dat.js" style="strokeWidth=2;html=1;shape=mxgraph.flowchart.document2;whiteSpace=wrap;size=0.25;verticalAlign=top;horizontal=1;" parent="1" vertex="1">
                    <mxGeometry x="647" y="245" width="80" height="50" as="geometry"/>
                </mxCell>
                <mxCell id="XJWeRA6G3s2P3Jyl9n3Q-8" style="rounded=0;orthogonalLoop=1;jettySize=auto;html=1;entryX=0;entryY=0.5;entryDx=0;entryDy=0;entryPerimeter=0;" parent="1" source="XJWeRA6G3s2P3Jyl9n3Q-1" target="XJWeRA6G3s2P3Jyl9n3Q-6" edge="1">
                    <mxGeometry relative="1" as="geometry"/>
                </mxCell>
                <mxCell id="XJWeRA6G3s2P3Jyl9n3Q-9" style="edgeStyle=orthogonalEdgeStyle;rounded=0;orthogonalLoop=1;jettySize=auto;html=1;entryX=0;entryY=0.5;entryDx=0;entryDy=0;entryPerimeter=0;" parent="1" source="XJWeRA6G3s2P3Jyl9n3Q-1" target="XJWeRA6G3s2P3Jyl9n3Q-5" edge="1">
                    <mxGeometry relative="1" as="geometry"/>
                </mxCell>
                <mxCell id="XJWeRA6G3s2P3Jyl9n3Q-17" value="mig.job.dat.js" style="strokeWidth=2;html=1;shape=mxgraph.flowchart.document2;whiteSpace=wrap;size=0.25;verticalAlign=top;horizontal=1;" parent="1" vertex="1">
                    <mxGeometry x="367" y="535" width="120" height="50" as="geometry"/>
                </mxCell>
                <mxCell id="XJWeRA6G3s2P3Jyl9n3Q-19" value="この職が装備可能" style="text;html=1;strokeColor=none;fillColor=none;align=center;verticalAlign=middle;whiteSpace=wrap;rounded=0;" parent="1" vertex="1">
                    <mxGeometry x="457" y="415" width="110" height="30" as="geometry"/>
                </mxCell>
                <mxCell id="XJWeRA6G3s2P3Jyl9n3Q-20" value="このタイプを装備可能" style="text;html=1;strokeColor=none;fillColor=none;align=center;verticalAlign=middle;whiteSpace=wrap;rounded=0;" parent="1" vertex="1">
                    <mxGeometry x="267" y="505" width="134" height="30" as="geometry"/>
                </mxCell>
                <mxCell id="XJWeRA6G3s2P3Jyl9n3Q-21" style="edgeStyle=orthogonalEdgeStyle;rounded=0;orthogonalLoop=1;jettySize=auto;html=1;exitX=0.25;exitY=0;exitDx=0;exitDy=0;exitPerimeter=0;" parent="1" source="XJWeRA6G3s2P3Jyl9n3Q-17" edge="1">
                    <mxGeometry relative="1" as="geometry">
                        <mxPoint x="397" y="415" as="targetPoint"/>
                    </mxGeometry>
                </mxCell>
                <mxCell id="XJWeRA6G3s2P3Jyl9n3Q-23" value="このスキルが使える" style="text;html=1;strokeColor=none;fillColor=none;align=center;verticalAlign=middle;whiteSpace=wrap;rounded=0;" parent="1" vertex="1">
                    <mxGeometry x="497" y="365" width="110" height="30" as="geometry"/>
                </mxCell>
                <mxCell id="XJWeRA6G3s2P3Jyl9n3Q-24" value="スキルの情報はこれ" style="text;html=1;strokeColor=none;fillColor=none;align=center;verticalAlign=middle;whiteSpace=wrap;rounded=0;" parent="1" vertex="1">
                    <mxGeometry x="697" y="315" width="110" height="30" as="geometry"/>
                </mxCell>
                <mxCell id="XJWeRA6G3s2P3Jyl9n3Q-25" value="このスキルの性能が変わる" style="text;html=1;strokeColor=none;fillColor=none;align=center;verticalAlign=middle;whiteSpace=wrap;rounded=0;" parent="1" vertex="1">
                    <mxGeometry x="487" y="255" width="150" height="30" as="geometry"/>
                </mxCell>
                <mxCell id="XJWeRA6G3s2P3Jyl9n3Q-26" value="この装備に付与できる" style="text;html=1;strokeColor=none;fillColor=none;align=center;verticalAlign=middle;whiteSpace=wrap;rounded=0;" parent="1" vertex="1">
                    <mxGeometry x="417" y="205" width="150" height="30" as="geometry"/>
                </mxCell>
                <mxCell id="XJWeRA6G3s2P3Jyl9n3Q-27" value="この効果が付与できる" style="text;html=1;strokeColor=none;fillColor=none;align=center;verticalAlign=middle;whiteSpace=wrap;rounded=0;" parent="1" vertex="1">
                    <mxGeometry x="227" y="155" width="150" height="30" as="geometry"/>
                </mxCell>
                <mxCell id="XJWeRA6G3s2P3Jyl9n3Q-28" value="このカード/エンチャントとセットで発動する" style="text;html=1;strokeColor=none;fillColor=none;align=center;verticalAlign=middle;whiteSpace=wrap;rounded=0;" parent="1" vertex="1">
                    <mxGeometry x="30" y="325" width="150" height="30" as="geometry"/>
                </mxCell>
                <mxCell id="XJWeRA6G3s2P3Jyl9n3Q-29" style="edgeStyle=orthogonalEdgeStyle;rounded=0;orthogonalLoop=1;jettySize=auto;html=1;entryX=0;entryY=0.5;entryDx=0;entryDy=0;entryPerimeter=0;" parent="1" edge="1">
                    <mxGeometry relative="1" as="geometry">
                        <mxPoint x="187" y="372.5" as="sourcePoint"/>
                        <mxPoint x="387" y="372.5" as="targetPoint"/>
                    </mxGeometry>
                </mxCell>
                <mxCell id="XJWeRA6G3s2P3Jyl9n3Q-30" value="このアイテムと&lt;br&gt;セットで発動する" style="text;html=1;strokeColor=none;fillColor=none;align=center;verticalAlign=middle;whiteSpace=wrap;rounded=0;" parent="1" vertex="1">
                    <mxGeometry x="200" y="335" width="150" height="30" as="geometry"/>
                </mxCell>
                <mxCell id="XJWeRA6G3s2P3Jyl9n3Q-31" style="edgeStyle=orthogonalEdgeStyle;rounded=0;orthogonalLoop=1;jettySize=auto;html=1;entryX=1;entryY=0.5;entryDx=0;entryDy=0;entryPerimeter=0;" parent="1" edge="1">
                    <mxGeometry relative="1" as="geometry">
                        <mxPoint x="387" y="402" as="sourcePoint"/>
                        <mxPoint x="187" y="402" as="targetPoint"/>
                    </mxGeometry>
                </mxCell>
                <mxCell id="XJWeRA6G3s2P3Jyl9n3Q-32" value="このセット効果を持つ" style="text;html=1;strokeColor=none;fillColor=none;align=center;verticalAlign=middle;whiteSpace=wrap;rounded=0;" parent="1" vertex="1">
                    <mxGeometry x="237" y="405" width="150" height="30" as="geometry"/>
                </mxCell>
            </root>
        </mxGraphModel>
    </diagram>
</mxfile>